<?xml version="1.0" encoding="utf-8"?>
<!-- Svg Vector Icons : http://www.onlinewebfonts.com/icon -->
<!DOCTYPE svg PUBLIC "-//W3C//DTD SVG 1.1//EN" "http://www.w3.org/Graphics/SVG/1.1/DTD/svg11.dtd">
<svg version="1.1" xmlns="http://www.w3.org/2000/svg" xmlns:xlink="http://www.w3.org/1999/xlink" x="0px" y="0px" viewBox="0 0 1000 1000" enable-background="new 0 0 1000 1000" xml:space="preserve">
<metadata> Svg Vector Icons : http://www.onlinewebfonts.com/icon </metadata>
<g><path d="M471.3,181.6l-289,289c-15.3,15.3-15.3,42.1,0,57.4l58.1,58.1c15.3,15.3,42.1,15.3,57.4,0l120.6-120.6v320.3c0,22.3,18.5,40.8,40.8,40.8h81.7c22.3,0,40.8-18.5,40.8-40.8V465.5l120.6,120.6c16,15.9,41.5,15.9,57.4,0l58.1-58.1c15.3-15.3,15.3-42.1,0-57.4l-289-289C513.4,166.3,486.6,166.3,471.3,181.6L471.3,181.6L471.3,181.6z M254.4,75.7C329,31.7,411.3,10,500,10c88.7,0,171,21.7,246.3,65.7c74.6,44,134,103.4,178,178.6c44,74.7,65.7,157,65.7,245.6c0,88.7-21.7,171-65.7,246.3c-44,74.7-103.4,134-178,178C671,968.3,588.7,990,500,990c-88.7,0-171-21.7-245.6-65.7c-75.3-44-134.6-103.4-178.6-178C31.7,671,10,588.7,10,500c0-88.7,21.7-171,65.7-245.6C119.7,179.1,179.1,119.7,254.4,75.7z"/></g>
</svg>